<?xml version="1.0" encoding="UTF-8"?>
<svg id="Layer_1" data-name="Layer 1" xmlns="http://www.w3.org/2000/svg" viewBox="0 0 100 100">
  <defs>
    <style>
      .cls-1 {
        fill: #56c7d9;
      }

      .cls-1, .cls-2, .cls-3, .cls-4 {
        stroke-width: 0px;
      }

      .cls-2 {
        fill: #29b34a;
      }

      .cls-3 {
        fill: #005a7c;
      }

      .cls-4 {
        fill: #ffd600;
      }
    </style>
  </defs>
  <g>
    <path class="cls-3" d="M28.7,31.65v10.28c-.13,0-.26,0-.39,0-5.39,0-9.76-4.37-9.76-9.76,0-.18,0-.35.01-.52h10.14Z"/>
    <path class="cls-1" d="M14.3,46c0-7.91-6.4-14.32-14.3-14.35v28.7c0-7.91,6.4-14.32,14.3-14.35Z"/>
    <path class="cls-4" d="M14.35,46h-.04c0,7.91-6.4,14.32-14.3,14.35h28.7c0-7.92-6.42-14.35-14.35-14.35Z"/>
    <path class="cls-2" d="M14.3,46c-7.9.02-14.3,6.44-14.3,14.35,7.9-.02,14.3-6.44,14.3-14.35Z"/>
  </g>
  <g>
    <path class="cls-3" d="M40.65,31.65v10.19h6.61v1.78h-8.62v-11.97h2.01Z"/>
    <path class="cls-3" d="M55.85,35.19h1.79v8.43h-1.76l-.09-1.37c-.59,1.08-1.95,1.59-3.05,1.59-2.58.02-4.53-1.57-4.53-4.45s2.03-4.4,4.57-4.4c1.25,0,2.46.56,3.01,1.52l.05-1.33ZM50.06,39.4c0,1.74,1.29,2.81,2.87,2.81,3.82,0,3.82-5.59,0-5.59-1.58,0-2.87,1.06-2.87,2.79Z"/>
    <path class="cls-3" d="M67.62,42.53c-.99.92-2.08,1.32-3.35,1.32-2.54,0-4.66-1.52-4.66-4.43s2.1-4.43,4.66-4.43c1.22,0,2.24.36,3.19,1.25l-1.18,1.18c-.56-.51-1.29-.75-1.99-.75-1.59,0-2.83,1.08-2.83,2.75,0,1.78,1.29,2.72,2.81,2.72.75,0,1.52-.22,2.1-.79l1.25,1.18Z"/>
    <path class="cls-3" d="M70.97,35.19v4.52c0,1.44.86,2.43,2.4,2.43,1.45,0,2.46-1.15,2.46-2.55v-4.4h1.85v8.45h-1.67l-.11-1.25c-.86.94-1.81,1.37-3.05,1.37-2.17,0-3.73-1.49-3.73-4.04v-4.53h1.85Z"/>
    <path class="cls-3" d="M86.88,43.62v-4.52c0-1.45-.86-2.43-2.38-2.43s-2.47,1.15-2.47,2.53v4.41h-1.85v-8.45h1.68l.11,1.23c.84-.91,1.83-1.35,2.97-1.35,2.15,0,3.8,1.45,3.8,4.04v4.53h-1.86Z"/>
    <path class="cls-3" d="M98.21,35.19h1.79v8.43h-1.76l-.09-1.37c-.59,1.08-1.95,1.59-3.05,1.59-2.58.02-4.53-1.57-4.53-4.45s2.03-4.4,4.57-4.4c1.25,0,2.46.56,3.01,1.52l.05-1.33ZM92.42,39.4c0,1.74,1.29,2.81,2.87,2.81,3.82,0,3.82-5.59,0-5.59-1.58,0-2.87,1.06-2.87,2.79Z"/>
  </g>
  <g>
    <path class="cls-3" d="M38.64,59.64v-11.96h8.87v1.86h-6.86v3.64h6.52v1.78h-6.52v4.67h-2.01Z"/>
    <path class="cls-3" d="M50.97,51.21v4.52c0,1.44.86,2.43,2.4,2.43,1.45,0,2.46-1.15,2.46-2.55v-4.4h1.85v8.45h-1.67l-.11-1.25c-.86.94-1.81,1.37-3.05,1.37-2.17,0-3.73-1.49-3.73-4.04v-4.53h1.85Z"/>
    <path class="cls-3" d="M66.88,59.64v-4.52c0-1.45-.86-2.43-2.38-2.43s-2.47,1.15-2.47,2.53v4.41h-1.85v-8.45h1.68l.11,1.23c.84-.91,1.83-1.35,2.97-1.35,2.15,0,3.8,1.45,3.8,4.04v4.53h-1.86Z"/>
    <path class="cls-3" d="M80,47.69v11.96h-1.74l-.11-1.33c-.7,1.08-1.88,1.51-3.06,1.51-2.56,0-4.52-1.61-4.52-4.4s1.92-4.4,4.48-4.4c1.08,0,2.53.51,3.1,1.51v-4.84h1.85ZM72.42,55.42c0,1.69,1.24,2.75,2.8,2.75s2.81-1.09,2.81-2.75-1.27-2.74-2.81-2.74-2.8,1.01-2.8,2.74Z"/>
  </g>
  <g>
    <path class="cls-3" d="M43.41,65.81c0,1.33-.85,2.54-2.64,2.54s-2.64-1.24-2.64-2.54c0-1.5,1.1-2.58,2.65-2.58,1.76,0,2.62,1.24,2.62,2.57ZM40.78,67.63c1.28,0,1.82-.86,1.82-1.81s-.54-1.85-1.8-1.87c-1.19,0-1.83.79-1.83,1.87.01.87.54,1.81,1.82,1.81Z"/>
    <path class="cls-3" d="M44.92,64.78v1.85c0,.59.35,1,.99,1,.6,0,1.01-.47,1.01-1.05v-1.81h.76v3.47h-.68l-.04-.51c-.35.39-.74.56-1.25.56-.89,0-1.53-.61-1.53-1.66v-1.86h.76Z"/>
    <path class="cls-3" d="M49.41,64.78l.05.46c.26-.44.68-.53,1.07-.53.35,0,.69.12.9.3l-.35.63c-.18-.14-.36-.21-.64-.21-.52,0-.98.31-.98.95v1.88h-.76v-3.46h.71Z"/>
    <path class="cls-3" d="M56.93,64.77l-1.54,3.48h-.83l-1.55-3.48h.84l.49,1.12.64,1.61.57-1.47.54-1.26h.83Z"/>
    <path class="cls-3" d="M60.96,66.52c0,1.03-.74,1.8-1.88,1.8s-1.87-.77-1.87-1.8.74-1.81,1.87-1.81,1.88.79,1.88,1.81ZM57.97,66.52c0,.62.42,1.12,1.11,1.12s1.12-.51,1.12-1.12-.46-1.14-1.12-1.14-1.11.53-1.11,1.14Z"/>
    <path class="cls-3" d="M62.62,63.76c0,.6-.94.6-.94,0s.94-.59.94,0ZM61.76,64.77v3.48h.76v-3.48h-.76Z"/>
    <path class="cls-3" d="M66.62,67.79c-.4.38-.85.54-1.38.54-1.05,0-1.91-.63-1.91-1.82s.86-1.82,1.91-1.82c.5,0,.92.15,1.31.51l-.49.48c-.23-.21-.53-.31-.82-.31-.66,0-1.16.44-1.16,1.13,0,.73.53,1.12,1.16,1.12.31,0,.63-.09.86-.32l.52.48Z"/>
    <path class="cls-3" d="M67.78,66.78c.07.53.52.87,1.19.87.37,0,.83-.13,1.05-.37l.49.46c-.38.39-1,.59-1.56.59-1.19,0-1.96-.72-1.96-1.83s.77-1.81,1.91-1.81,1.97.68,1.83,2.09h-2.94ZM69.99,66.17c-.04-.55-.46-.84-1.07-.84-.55,0-1.01.29-1.13.84h2.2Z"/>
    <path class="cls-3" d="M74.18,63.76c0,.6-.94.6-.94,0s.94-.59.94,0ZM73.33,64.77v3.48h.76v-3.48h-.76Z"/>
    <path class="cls-3" d="M77.87,68.24v-1.85c0-.6-.35-1-.98-1s-1.02.47-1.02,1.04v1.81h-.76v-3.47h.69l.04.51c.35-.37.75-.55,1.22-.55.88,0,1.56.6,1.56,1.66v1.86h-.77Z"/>
    <path class="cls-3" d="M85.09,63.33v4.91h-.71l-.04-.55c-.29.44-.77.62-1.26.62-1.05,0-1.86-.66-1.86-1.81s.79-1.81,1.84-1.81c.44,0,1.04.21,1.27.62v-1.99h.76ZM81.98,66.51c0,.7.51,1.13,1.15,1.13s1.16-.45,1.16-1.13-.52-1.12-1.16-1.12-1.15.41-1.15,1.12Z"/>
    <path class="cls-3" d="M89.03,64.78h.74v3.46h-.72l-.04-.56c-.24.44-.8.65-1.25.65-1.06,0-1.86-.65-1.86-1.83s.83-1.81,1.88-1.81c.52,0,1.01.23,1.24.63l.02-.55ZM86.66,66.51c0,.72.53,1.15,1.18,1.15,1.57,0,1.57-2.3,0-2.3-.65,0-1.18.44-1.18,1.14Z"/>
    <path class="cls-3" d="M91.97,63.78v1h1.06v.63h-1.07v1.65c0,.37.17.57.52.57.15,0,.32-.05.46-.12l.22.62c-.25.11-.47.15-.73.15-.79.02-1.24-.41-1.24-1.22v-1.65h-.7v-.63h.7v-.93l.77-.08Z"/>
    <path class="cls-3" d="M96.71,64.78h.74v3.46h-.72l-.04-.56c-.24.44-.8.65-1.25.65-1.06,0-1.86-.65-1.86-1.83s.83-1.81,1.88-1.81c.52,0,1.01.23,1.24.63l.02-.55ZM94.33,66.51c0,.72.53,1.15,1.18,1.15,1.57,0,1.57-2.3,0-2.3-.65,0-1.18.44-1.18,1.14Z"/>
  </g>
</svg>